<svg width="16" height="16" fill="none" xmlns="http://www.w3.org/2000/svg"><path d="m15.819 14.063-3.212-2.747a6.968 6.968 0 0 0 1.456-4.285c0-1.88-.734-3.642-2.06-4.97A6.98 6.98 0 0 0 7.03 0a6.99 6.99 0 0 0-4.97 2.06A6.975 6.975 0 0 0 0 7.031c0 1.878.734 3.645 2.06 4.971a6.975 6.975 0 0 0 4.971 2.06c1.57 0 3.061-.51 4.282-1.453l3.212 2.745a.193.193 0 0 0 .272 0l1.022-1.02a.195.195 0 0 0 .056-.136.193.193 0 0 0-.056-.136Zm-5.075-3.32a5.222 5.222 0 0 1-3.713 1.538 5.222 5.222 0 0 1-3.712-1.537A5.222 5.222 0 0 1 1.78 7.03c0-1.401.546-2.72 1.538-3.712A5.222 5.222 0 0 1 7.03 1.78c1.402 0 2.721.544 3.713 1.538A5.222 5.222 0 0 1 12.28 7.03a5.218 5.218 0 0 1-1.537 3.713Z" fill="currentColor"/></svg>